<svg width="80" height="17" viewBox="0 0 80 17" fill="none" xmlns="http://www.w3.org/2000/svg">
	<path d="M12.3131 15.5C12.2079 15.5004 12.1052 15.4676 12.0197 15.4062L8.00064 12.4925L3.98158 15.4062C3.89571 15.4685 3.79227 15.5019 3.6862 15.5015C3.58012 15.5011 3.47692 15.467 3.39151 15.4041C3.3061 15.3412 3.24291 15.2528 3.21107 15.1516C3.17923 15.0504 3.18039 14.9417 3.21439 14.8412L4.78189 10.1984L0.719389 7.41249C0.631393 7.35221 0.564978 7.26537 0.529849 7.16466C0.49472 7.06395 0.492718 6.95464 0.524134 6.85271C0.555551 6.75078 0.618741 6.66157 0.704471 6.59811C0.790201 6.53465 0.893978 6.50027 1.00064 6.49999H6.01251L7.52501 1.8453C7.5576 1.74481 7.62117 1.65722 7.70662 1.5951C7.79207 1.53297 7.895 1.49951 8.00064 1.49951C8.10628 1.49951 8.20921 1.53297 8.29466 1.5951C8.38011 1.65722 8.44368 1.74481 8.47626 1.8453L9.98876 6.50155H15.0006C15.1074 6.5015 15.2114 6.53564 15.2974 6.59898C15.3834 6.66232 15.4469 6.75152 15.4785 6.85353C15.5101 6.95554 15.5082 7.06499 15.4731 7.16586C15.438 7.26672 15.3716 7.3537 15.2835 7.41405L11.2194 10.1984L12.786 14.84C12.8113 14.9151 12.8185 14.9952 12.8068 15.0737C12.7951 15.1521 12.7649 15.2267 12.7187 15.2912C12.6725 15.3557 12.6116 15.4082 12.5411 15.4445C12.4706 15.4808 12.3925 15.4998 12.3131 15.5Z" fill="#FF8682" />
	<path d="M28.3131 15.5C28.2079 15.5004 28.1052 15.4676 28.0197 15.4062L24.0006 12.4925L19.9816 15.4062C19.8957 15.4685 19.7923 15.5019 19.6862 15.5015C19.5801 15.5011 19.4769 15.467 19.3915 15.4041C19.3061 15.3412 19.2429 15.2528 19.2111 15.1516C19.1792 15.0504 19.1804 14.9417 19.2144 14.8412L20.7819 10.1984L16.7194 7.41249C16.6314 7.35221 16.565 7.26537 16.5298 7.16466C16.4947 7.06395 16.4927 6.95464 16.5241 6.85271C16.5556 6.75078 16.6187 6.66157 16.7045 6.59811C16.7902 6.53465 16.894 6.50027 17.0006 6.49999H22.0125L23.525 1.8453C23.5576 1.74481 23.6212 1.65722 23.7066 1.5951C23.7921 1.53297 23.895 1.49951 24.0006 1.49951C24.1063 1.49951 24.2092 1.53297 24.2947 1.5951C24.3801 1.65722 24.4437 1.74481 24.4763 1.8453L25.9888 6.50155H31.0006C31.1074 6.5015 31.2114 6.53564 31.2974 6.59898C31.3834 6.66232 31.4469 6.75152 31.4785 6.85353C31.5101 6.95554 31.5082 7.06499 31.4731 7.16586C31.438 7.26672 31.3716 7.3537 31.2835 7.41405L27.2194 10.1984L28.786 14.84C28.8113 14.9151 28.8185 14.9952 28.8068 15.0737C28.7951 15.1521 28.7649 15.2267 28.7187 15.2912C28.6725 15.3557 28.6116 15.4082 28.5411 15.4445C28.4706 15.4808 28.3925 15.4998 28.3131 15.5Z" fill="#FF8682" />
	<path d="M44.3131 15.5C44.2079 15.5004 44.1052 15.4676 44.0197 15.4062L40.0006 12.4925L35.9816 15.4062C35.8957 15.4685 35.7923 15.5019 35.6862 15.5015C35.5801 15.5011 35.4769 15.467 35.3915 15.4041C35.3061 15.3412 35.2429 15.2528 35.2111 15.1516C35.1792 15.0504 35.1804 14.9417 35.2144 14.8412L36.7819 10.1984L32.7194 7.41249C32.6314 7.35221 32.565 7.26537 32.5298 7.16466C32.4947 7.06395 32.4927 6.95464 32.5241 6.85271C32.5556 6.75078 32.6187 6.66157 32.7045 6.59811C32.7902 6.53465 32.894 6.50027 33.0006 6.49999H38.0125L39.525 1.8453C39.5576 1.74481 39.6212 1.65722 39.7066 1.5951C39.7921 1.53297 39.895 1.49951 40.0006 1.49951C40.1063 1.49951 40.2092 1.53297 40.2947 1.5951C40.3801 1.65722 40.4437 1.74481 40.4763 1.8453L41.9888 6.50155H47.0006C47.1074 6.5015 47.2114 6.53564 47.2974 6.59898C47.3834 6.66232 47.4469 6.75152 47.4785 6.85353C47.5101 6.95554 47.5082 7.06499 47.4731 7.16586C47.438 7.26672 47.3716 7.3537 47.2835 7.41405L43.2194 10.1984L44.786 14.84C44.8113 14.9151 44.8185 14.9952 44.8068 15.0737C44.7951 15.1521 44.7649 15.2267 44.7187 15.2912C44.6725 15.3557 44.6116 15.4082 44.5411 15.4445C44.4706 15.4808 44.3925 15.4998 44.3131 15.5Z" fill="#FF8682" />
	<path d="M60.3131 15.5C60.2079 15.5004 60.1052 15.4676 60.0197 15.4062L56.0006 12.4925L51.9816 15.4062C51.8957 15.4685 51.7923 15.5019 51.6862 15.5015C51.5801 15.5011 51.4769 15.467 51.3915 15.4041C51.3061 15.3412 51.2429 15.2528 51.2111 15.1516C51.1792 15.0504 51.1804 14.9417 51.2144 14.8412L52.7819 10.1984L48.7194 7.41249C48.6314 7.35221 48.565 7.26537 48.5298 7.16466C48.4947 7.06395 48.4927 6.95464 48.5241 6.85271C48.5556 6.75078 48.6187 6.66157 48.7045 6.59811C48.7902 6.53465 48.894 6.50027 49.0006 6.49999H54.0125L55.525 1.8453C55.5576 1.74481 55.6212 1.65722 55.7066 1.5951C55.7921 1.53297 55.895 1.49951 56.0006 1.49951C56.1063 1.49951 56.2092 1.53297 56.2947 1.5951C56.3801 1.65722 56.4437 1.74481 56.4763 1.8453L57.9888 6.50155H63.0006C63.1074 6.5015 63.2114 6.53564 63.2974 6.59898C63.3834 6.66232 63.4469 6.75152 63.4785 6.85353C63.5101 6.95554 63.5082 7.06499 63.4731 7.16586C63.438 7.26672 63.3716 7.3537 63.2835 7.41405L59.2194 10.1984L60.786 14.84C60.8113 14.9151 60.8185 14.9952 60.8068 15.0737C60.7951 15.1521 60.7649 15.2267 60.7187 15.2912C60.6725 15.3557 60.6116 15.4082 60.5411 15.4445C60.4706 15.4808 60.3925 15.4998 60.3131 15.5Z" fill="#FF8682" />
	<path d="M76.3131 15.5C76.2079 15.5004 76.1052 15.4676 76.0197 15.4062L72.0006 12.4925L67.9816 15.4062C67.8957 15.4685 67.7923 15.5019 67.6862 15.5015C67.5801 15.5011 67.4769 15.467 67.3915 15.4041C67.3061 15.3412 67.2429 15.2528 67.2111 15.1516C67.1792 15.0504 67.1804 14.9417 67.2144 14.8412L68.7819 10.1984L64.7194 7.41249C64.6314 7.35221 64.565 7.26537 64.5298 7.16466C64.4947 7.06395 64.4927 6.95464 64.5241 6.85271C64.5556 6.75078 64.6187 6.66157 64.7045 6.59811C64.7902 6.53465 64.894 6.50027 65.0006 6.49999H70.0125L71.525 1.8453C71.5576 1.74481 71.6212 1.65722 71.7066 1.5951C71.7921 1.53297 71.895 1.49951 72.0006 1.49951C72.1063 1.49951 72.2092 1.53297 72.2947 1.5951C72.3801 1.65722 72.4437 1.74481 72.4763 1.8453L73.9888 6.50155H79.0006C79.1074 6.5015 79.2114 6.53564 79.2974 6.59898C79.3834 6.66232 79.4469 6.75152 79.4785 6.85353C79.5101 6.95554 79.5082 7.06499 79.4731 7.16586C79.438 7.26672 79.3716 7.3537 79.2835 7.41405L75.2194 10.1984L76.786 14.84C76.8113 14.9151 76.8185 14.9952 76.8068 15.0737C76.7951 15.1521 76.7649 15.2267 76.7187 15.2912C76.6725 15.3557 76.6116 15.4082 76.5411 15.4445C76.4706 15.4808 76.3925 15.4998 76.3131 15.5Z" fill="#FF8682" />
</svg>
